<svg width="32" height="32" viewBox="0 0 32 32" fill="none" xmlns="http://www.w3.org/2000/svg">
<path d="M13.2855 25V18.5161C15.1123 18.0436 16.4568 16.397 16.4568 14.4241C16.4568 13.9905 16.3935 13.5765 16.2717 13.1867L20.1104 10.9702C20.4076 11.131 20.7437 11.2333 21.1091 11.2333C22.2733 11.2333 23.2233 10.2882 23.2233 9.11421C23.2233 7.94993 22.2733 7 21.1091 7C19.935 7 18.99 7.94993 18.99 9.11421C18.99 9.13857 18.9949 9.15318 18.9949 9.17267L15.1659 11.3843C14.406 10.6487 13.3683 10.1957 12.2284 10.1957C9.89012 10.1957 8 12.0858 8 14.4241C8 16.397 9.34939 18.0436 11.1713 18.5161V25" stroke="black" stroke-width="2" stroke-miterlimit="10" stroke-linecap="round"/>
</svg>
