<svg width="32" height="32" viewBox="0 0 32 32" fill="none" xmlns="http://www.w3.org/2000/svg">
<path d="M23.7903 18.853L23.2673 17.3568H21.0389L20.5205 18.853H19.2971L21.43 13.0001H22.8717L25 18.853H23.7903ZM22.1531 13.9005L22.1258 13.9915C22.1016 14.0946 22.0682 14.2082 22.0258 14.3326C21.9864 14.4599 21.7499 15.1602 21.3163 16.4336H22.9944L22.4214 14.7555L22.2395 14.1916L22.1531 13.9005ZM17.6417 18.853L17.1233 17.3568H14.8949L14.3719 18.853H13.144L15.286 13.0001H16.7276L18.856 18.853H17.6417ZM16.0045 13.9005L15.9773 13.9915C15.95 14.0946 15.9166 14.2082 15.8772 14.3326C15.8408 14.4599 15.6043 15.1602 15.1678 16.4336H16.8459L16.2683 14.7555L16.091 14.1916L16.0045 13.9005ZM11.4932 18.853L10.9747 17.3568H8.74179L8.22789 18.853H7L9.1329 13.0001H10.5791L12.7074 18.853H11.4932ZM9.86054 13.9005L9.83325 13.9915C9.80596 14.0946 9.77261 14.2082 9.7332 14.3326C9.69378 14.4599 9.45427 15.1602 9.01465 16.4336H10.7019L10.1243 14.7555L9.9424 14.1916L9.86054 13.9005Z" fill="black"/>
</svg>
