<svg width="32" height="32" viewBox="0 0 32 32" fill="none" xmlns="http://www.w3.org/2000/svg">
<rect x="16" y="6.99988" width="12.7279" height="12.7279" transform="rotate(45 16 6.99988)" stroke="black" stroke-width="2" stroke-linejoin="round"/>
<path d="M14.9826 17.4201V17.3261C14.9851 16.8898 15.026 16.5426 15.1056 16.2847C15.1875 16.0268 15.3033 15.8195 15.4527 15.6628C15.6022 15.5037 15.7842 15.3578 15.9987 15.2252C16.1458 15.1336 16.2771 15.0336 16.3928 14.9251C16.511 14.8142 16.6038 14.6913 16.6713 14.5563C16.7388 14.4189 16.7725 14.2658 16.7725 14.0971C16.7725 13.9067 16.7279 13.7415 16.6387 13.6017C16.5495 13.4619 16.429 13.3534 16.2771 13.2763C16.1277 13.1991 15.9601 13.1606 15.7745 13.1606C15.6034 13.1606 15.4407 13.1979 15.2864 13.2727C15.1345 13.345 15.008 13.4559 14.9067 13.6053C14.8079 13.7524 14.7524 13.9392 14.7404 14.1658H13.4531C13.4652 13.7078 13.5761 13.3245 13.7858 13.0159C13.9979 12.7074 14.2775 12.476 14.6247 12.3217C14.9742 12.1674 15.3599 12.0903 15.7818 12.0903C16.2422 12.0903 16.6472 12.171 16.9967 12.3325C17.3486 12.494 17.6222 12.7243 17.8175 13.0232C18.0152 13.3197 18.114 13.6716 18.114 14.079C18.114 14.3538 18.0694 14.5997 17.9802 14.8166C17.8934 15.0336 17.7693 15.2265 17.6078 15.3952C17.4463 15.5639 17.2546 15.7146 17.0329 15.8472C16.8376 15.9677 16.6773 16.0931 16.5519 16.2232C16.429 16.3534 16.3374 16.5065 16.2771 16.6824C16.2193 16.856 16.1891 17.0706 16.1867 17.3261V17.4201H14.9826ZM15.6118 19.6764C15.3949 19.6764 15.208 19.5993 15.0513 19.445C14.8947 19.2907 14.8163 19.1027 14.8163 18.8809C14.8163 18.664 14.8947 18.4783 15.0513 18.3241C15.208 18.1698 15.3949 18.0926 15.6118 18.0926C15.8264 18.0926 16.012 18.1698 16.1687 18.3241C16.3278 18.4783 16.4073 18.664 16.4073 18.8809C16.4073 19.028 16.3699 19.1617 16.2952 19.2823C16.2229 19.4028 16.1265 19.4992 16.0059 19.5715C15.8878 19.6414 15.7564 19.6764 15.6118 19.6764Z" fill="black"/>
</svg>
